<svg width="95" height="95" viewBox="0 0 95 95" fill="none" xmlns="http://www.w3.org/2000/svg">
<path d="M47.5 4.94792C49.1396 4.94792 50.4687 6.27707 50.4687 7.91667V11.875C50.4687 13.5146 49.1396 14.8438 47.5 14.8438C45.8604 14.8438 44.5312 13.5146 44.5312 11.875V7.91667C44.5312 6.27707 45.8604 4.94792 47.5 4.94792Z" fill="white"/>
<path fill-rule="evenodd" clip-rule="evenodd" d="M24.7395 47.5C24.7395 34.9298 34.9297 24.7396 47.5 24.7396C60.0702 24.7396 70.2604 34.9298 70.2604 47.5C70.2604 60.0702 60.0702 70.2604 47.5 70.2604C34.9297 70.2604 24.7395 60.0702 24.7395 47.5ZM47.5 30.6771C38.2089 30.6771 30.677 38.209 30.677 47.5C30.677 56.791 38.2089 64.3229 47.5 64.3229C56.791 64.3229 64.3229 56.791 64.3229 47.5C64.3229 38.209 56.791 30.6771 47.5 30.6771Z" fill="white"/>
<path d="M21.6096 17.4112C20.4502 16.2519 18.5705 16.2519 17.4111 17.4112C16.2518 18.5706 16.2518 20.4503 17.4111 21.6097L20.2101 24.4086C21.3695 25.568 23.2492 25.568 24.4086 24.4086C25.5679 23.2493 25.5679 21.3696 24.4086 20.2102L21.6096 17.4112Z" fill="white"/>
<path d="M90.052 47.5C90.052 49.1396 88.7229 50.4688 87.0833 50.4688H83.125C81.4854 50.4688 80.1562 49.1396 80.1562 47.5C80.1562 45.8604 81.4854 44.5313 83.125 44.5313H87.0833C88.7229 44.5313 90.052 45.8604 90.052 47.5Z" fill="white"/>
<path d="M77.5887 21.6096C78.7481 20.4503 78.7481 18.5706 77.5887 17.4112C76.4294 16.2518 74.5497 16.2518 73.3903 17.4112L70.5913 20.2102C69.432 21.3695 69.432 23.2492 70.5913 24.4086C71.7507 25.568 73.6304 25.568 74.7898 24.4086L77.5887 21.6096Z" fill="white"/>
<path d="M47.5 80.1562C49.1396 80.1562 50.4687 81.4854 50.4687 83.125V87.0833C50.4687 88.7229 49.1396 90.0521 47.5 90.0521C45.8604 90.0521 44.5312 88.7229 44.5312 87.0833V83.125C44.5312 81.4854 45.8604 80.1562 47.5 80.1562Z" fill="white"/>
<path d="M74.79 70.5914C73.6307 69.4321 71.751 69.4321 70.5916 70.5914C69.4322 71.7508 69.4322 73.6305 70.5916 74.7899L73.3905 77.5888C74.5499 78.7482 76.4296 78.7482 77.589 77.5888C78.7484 76.4295 78.7484 74.5498 77.589 73.3904L74.79 70.5914Z" fill="white"/>
<path d="M14.8437 47.5C14.8437 49.1396 13.5146 50.4688 11.875 50.4688H7.91663C6.27703 50.4688 4.94788 49.1396 4.94788 47.5C4.94788 45.8604 6.27703 44.5313 7.91663 44.5313H11.875C13.5146 44.5313 14.8437 45.8604 14.8437 47.5Z" fill="white"/>
<path d="M24.4083 74.7898C25.5677 73.6305 25.5677 71.7508 24.4083 70.5914C23.2489 69.432 21.3692 69.432 20.2098 70.5914L17.4109 73.3903C16.2515 74.5497 16.2515 76.4294 17.4109 77.5888C18.5703 78.7482 20.45 78.7482 21.6093 77.5888L24.4083 74.7898Z" fill="white"/>
</svg>
